<svg data-v-73fdaaa2="" version="1.0" xmlns="http://www.w3.org/2000/svg" xmlns:xlink="http://www.w3.org/1999/xlink" width="100%" height="100%" viewBox="0 0 340.000000 250.000000" preserveAspectRatio="xMidYMid meet" color-interpolation-filters="sRGB" class="el-tooltip" style="margin: auto;"><g xmlns="http://www.w3.org/2000/svg" class="iconsvg-imagesvg" transform="translate(0,0)"><rect fill="#4e3d5f" fill-opacity="0" stroke="#4e3d5f" stroke-width="2" rx="30" ry="30" x="0" y="0" width="60" height="60"/> <svg x="10.127221718323089" y="11.722344697218123" width="39.74555656335382" height="36.555310605563754" class="imagesvg-svg"><svg xmlns="http://www.w3.org/2000/svg" viewBox="0 0 404.9 372.4"><path d="M106.9 95.2h226.8V73.9H106.9c-26.7 0-36.6-7.1-36.6-26.3 0-24.6 9.7-26.4 25.8-26.4 1.7 0 3.4 0 5.1.1h232.5V.1H96.1c-12.8-.1-47-.1-47 47.6 0 31.5 19.4 47.5 57.8 47.5zm0 0" fill="#4e3d5f"/><path fill="#ea3e23" d="M93.7 28.9h226.8v7H93.7zM93.7 43.6h226.8v7H93.7zM93.7 59.3h226.8v7.1H93.7z"/><path fill="#ff967d" d="M333.7 0l18.5 10.7-18.5 10.7z"/><path fill="#4e3d5f" d="M347 7.7v6l5.2-3z"/><g><path d="M298.2 227.1h6.5c15.3 0 56.1 0 56.1-56.7 0-37.6-23.2-56.6-68.9-56.6h-270v25.3h269.9c31.8 0 43.6 8.4 43.6 31.3 0 29.3-11.6 31.4-30.8 31.4-2.1 0-4.1 0-6.1-.1H21.9V227h270.7c1.8 0 3.7 0 5.6.1zm0 0" fill="#72a114"/><path fill="#ea3e23" d="M37.8 185.1h270v7h-270zM37.8 167.5h270v7.1h-270zM37.8 148.8h270v7.1h-270z"/><path fill="#4e3d5f" d="M21.9 139.1L0 126.5l21.9-12.7z"/><path fill="#72a114" d="M6.1 130v-7.1L0 126.5z"/></g><g><path d="M380.5 246.1H72.1c-2.3 0-4.8-.1-7.2-.1-17.1 0-62.6 0-62.6 63.3 0 41.9 25.9 63.2 76.9 63.2h301.3v-28.3H79.2c-35.5 0-48.7-9.5-48.7-34.9 0-32.7 13-35.1 34.4-35.1 2.3 0 4.6 0 6.8.1h308.8v-28.2zm0 0" fill="#ff967d"/><path fill="#ea3e23" d="M61.5 285.4h301.3v7.1H61.5zM61.5 305.1h301.3v7.1H61.5zM61.5 325.9h301.3v7.1H61.5z"/><path fill="#72a114" d="M380.5 246.1l24.4 14.1-24.4 14.1z"/><path fill="#ff967d" d="M398.1 256.2v7.9l6.8-3.9z"/></g></svg></svg> <!----></g></svg>